<svg xmlns="http://www.w3.org/2000/svg" xmlns:xlink="http://www.w3.org/1999/xlink" preserveAspectRatio="xMidYMid" width="54" height="57" viewBox="0 0 54 57">
  <defs>
    <style>
      .cls-1 {
        fill: #0e0b11;
        fill-rule: evenodd;
      }
    </style>
  </defs>
  <path d="M53.435,38.579 C53.392,38.615 49.085,42.272 47.386,43.979 C45.595,45.780 32.671,53.111 31.203,53.941 L31.010,54.050 L27.011,54.321 L26.958,54.319 C26.886,54.316 19.729,54.032 17.729,54.311 C16.761,54.446 15.497,54.873 14.073,55.548 L13.239,53.766 C14.862,52.997 16.282,52.524 17.460,52.360 C19.558,52.067 26.264,52.321 26.984,52.350 L30.436,52.115 C36.112,48.901 44.803,43.792 46.001,42.587 C47.320,41.261 50.033,38.906 51.382,37.749 C50.933,37.471 50.153,37.198 48.848,37.267 C46.441,37.394 41.715,40.631 40.097,41.867 L38.911,40.299 C39.556,39.807 45.304,35.482 48.745,35.300 C52.611,35.095 53.654,37.327 53.697,37.422 L54.000,38.099 L53.435,38.579 ZM46.300,34.386 C45.962,32.176 45.106,29.932 43.952,28.229 C43.637,27.766 43.321,27.292 43.002,26.814 C40.696,23.359 38.311,19.786 35.030,17.607 C34.771,17.435 34.510,17.241 34.232,17.035 C34.143,16.969 34.050,16.901 33.958,16.834 L34.589,18.587 L32.748,19.257 L31.483,15.745 C30.902,15.670 30.321,15.685 29.740,15.770 L28.424,19.426 L26.582,18.756 L27.373,16.558 C26.698,16.906 26.018,17.350 25.330,17.914 C23.170,19.682 21.367,22.152 19.889,24.334 L19.819,24.436 C17.613,27.693 14.592,32.154 14.611,36.083 L14.615,37.068 L12.657,37.078 L12.652,36.093 C12.630,31.552 15.850,26.798 18.200,23.328 L18.270,23.225 C19.828,20.926 21.738,18.315 24.093,16.387 C24.872,15.749 25.656,15.235 26.444,14.826 L20.557,6.922 L20.896,6.354 C20.957,6.252 22.298,4.054 24.423,3.153 C24.390,3.059 24.370,3.003 24.370,3.003 L24.127,2.318 L24.708,1.883 C24.773,1.834 26.339,0.676 28.669,0.200 C30.843,-0.243 34.115,-0.165 37.369,2.718 L37.932,3.217 L37.599,3.893 C37.550,3.993 37.487,4.115 37.417,4.247 C39.070,5.276 40.088,6.947 40.137,7.030 L40.509,7.652 L34.282,14.670 C34.670,14.916 35.045,15.190 35.396,15.451 C35.652,15.641 35.894,15.820 36.109,15.964 C39.719,18.360 42.327,22.269 44.628,25.717 C44.945,26.191 45.258,26.660 45.570,27.120 C46.883,29.057 47.855,31.596 48.236,34.086 L48.385,35.059 L46.449,35.359 L46.300,34.386 ZM38.049,7.467 C37.699,7.019 37.142,6.403 36.455,5.962 C36.233,6.346 35.986,6.768 35.708,7.238 L34.024,6.232 C34.648,5.176 35.146,4.312 35.480,3.706 C31.616,0.746 27.902,2.282 26.478,3.083 C26.724,3.776 27.103,4.844 27.446,5.811 L25.601,6.472 C25.430,5.990 25.250,5.483 25.082,5.009 C24.140,5.441 23.373,6.290 22.946,6.844 L28.287,14.016 L28.132,14.133 C28.260,14.093 28.388,14.063 28.516,14.030 L27.992,12.703 L29.812,11.976 L30.516,13.758 C30.541,13.758 30.566,13.755 30.591,13.755 L31.047,11.886 L32.949,12.356 L32.660,13.540 L38.049,7.467 ZM32.832,8.229 C32.833,8.228 32.904,8.111 33.024,7.911 L33.530,7.068 L35.207,8.085 L34.701,8.928 C34.577,9.134 34.505,9.254 34.505,9.254 L33.995,10.095 L32.323,9.070 L32.832,8.229 ZM25.802,7.040 L27.647,6.379 L28.561,8.954 L26.716,9.615 L25.802,7.040 ZM29.769,36.992 C29.769,36.982 29.767,36.463 29.764,35.820 C28.333,35.473 27.066,34.456 26.509,33.035 L28.331,32.313 C28.674,33.188 29.555,33.823 30.477,33.959 L31.194,33.952 C31.244,33.944 31.294,33.944 31.343,33.933 L31.347,33.950 L31.710,33.946 C31.714,34.396 31.718,35.025 31.721,35.595 L31.780,35.853 C31.761,35.857 31.742,35.858 31.723,35.863 C31.726,36.483 31.727,36.976 31.727,36.985 L29.769,36.992 ZM31.279,28.024 C32.248,28.459 33.963,29.432 34.566,31.065 C34.892,31.946 34.836,32.900 34.404,33.822 C34.135,34.396 33.753,34.870 33.266,35.229 L32.107,33.642 C32.327,33.479 32.503,33.258 32.631,32.984 C32.843,32.533 32.874,32.141 32.730,31.751 C32.475,31.061 31.634,30.340 30.480,29.822 C29.498,29.381 27.793,28.403 27.409,26.812 C27.262,26.200 27.260,25.251 28.092,24.205 C28.503,23.687 29.042,23.284 29.627,23.023 L29.614,21.682 L31.573,21.662 L31.583,22.739 C32.279,22.847 33.132,23.204 33.923,24.170 L32.411,25.422 C31.999,24.920 31.550,24.665 31.076,24.665 C31.073,24.665 31.069,24.665 31.066,24.665 C30.448,24.669 29.902,25.082 29.622,25.434 C29.216,25.945 29.289,26.248 29.313,26.348 C29.443,26.888 30.215,27.546 31.279,28.024 ZM14.532,38.585 C16.602,38.585 22.200,39.504 23.145,39.662 C24.523,39.530 32.171,38.842 34.636,39.530 C36.163,39.956 38.263,41.519 38.497,41.695 L38.693,41.843 L38.797,42.067 C39.216,42.970 39.583,44.797 38.297,45.914 C37.259,46.816 35.188,47.170 32.997,47.545 C32.009,47.714 31.077,47.873 30.320,48.073 C29.299,48.341 28.055,48.253 26.738,48.159 C24.620,48.009 22.219,47.838 20.282,49.084 L19.227,47.424 C21.711,45.828 24.575,46.031 26.876,46.195 C28.028,46.277 29.115,46.354 29.824,46.168 C30.664,45.946 31.683,45.772 32.668,45.603 C34.327,45.320 36.392,44.966 37.017,44.423 C37.363,44.123 37.205,43.446 37.096,43.105 C36.403,42.606 34.994,41.674 34.112,41.427 C32.241,40.905 25.605,41.400 23.206,41.634 L23.077,41.647 L22.949,41.625 C22.885,41.614 16.586,40.555 14.532,40.555 C14.531,40.555 14.530,40.555 14.529,40.555 C12.592,40.556 9.069,42.086 8.233,43.084 L1.497,51.115 L0.000,49.845 L6.735,41.814 C8.025,40.277 12.103,38.587 14.528,38.585 C14.529,38.585 14.530,38.585 14.532,38.585 ZM11.941,54.231 L12.817,55.992 C12.596,56.104 12.364,56.287 12.118,56.480 C11.897,56.655 11.667,56.836 11.405,57.000 L10.371,55.328 C10.542,55.220 10.721,55.080 10.910,54.931 C11.206,54.697 11.543,54.431 11.941,54.231 Z" class="cls-1"/>
</svg>

