<svg xmlns="http://www.w3.org/2000/svg" xmlns:xlink="http://www.w3.org/1999/xlink" preserveAspectRatio="xMidYMid" width="42" height="53" viewBox="0 0 42 53">
  <defs>
    <style>
      .cls-1 {
        fill: #0e0b11;
        fill-rule: evenodd;
      }
    </style>
  </defs>
  <path d="M41.860,51.942 C41.820,52.535 41.332,53.000 40.749,53.000 L1.250,53.000 C0.668,53.000 0.180,52.535 0.140,51.942 C-0.217,46.595 -0.029,36.677 2.950,33.419 C3.723,32.575 4.681,32.128 5.723,32.128 L6.213,32.129 C6.414,32.132 6.616,32.134 6.813,32.134 C8.889,32.134 10.741,31.918 12.402,29.269 C12.607,28.942 12.958,28.746 13.341,28.746 C13.552,28.746 13.760,28.808 13.939,28.925 C14.454,29.262 14.606,29.967 14.276,30.495 C12.122,33.933 9.436,34.407 6.855,34.407 C6.631,34.407 6.413,34.404 6.201,34.401 L5.725,34.400 C5.295,34.400 4.930,34.581 4.575,34.971 C1.903,37.895 2.232,48.944 2.278,50.194 C2.290,50.492 2.529,50.728 2.822,50.728 L7.757,50.728 C8.057,50.728 8.300,50.480 8.300,50.173 L8.300,38.336 C8.300,37.710 8.799,37.201 9.412,37.201 C10.025,37.201 10.524,37.710 10.524,38.336 L10.524,40.762 C10.524,40.959 10.627,41.141 10.793,41.241 C13.770,43.019 17.300,43.959 21.000,43.959 C24.700,43.959 28.230,43.019 31.207,41.241 C31.373,41.141 31.475,40.959 31.475,40.762 L31.475,38.336 C31.475,37.710 31.974,37.201 32.588,37.201 C33.200,37.201 33.700,37.710 33.700,38.336 L33.700,50.173 C33.700,50.480 33.943,50.728 34.243,50.728 L39.178,50.728 C39.470,50.728 39.710,50.492 39.721,50.194 C39.767,48.943 40.094,37.889 37.424,34.970 C37.070,34.581 36.705,34.400 36.277,34.400 L35.805,34.401 C35.599,34.404 35.392,34.406 35.180,34.406 C32.759,34.406 29.986,34.104 27.724,30.494 C27.393,29.967 27.546,29.262 28.061,28.924 C28.240,28.809 28.447,28.747 28.659,28.747 C29.041,28.747 29.393,28.942 29.599,29.271 C31.257,31.918 33.111,32.134 35.189,32.134 C35.386,32.134 35.587,32.132 35.791,32.129 L36.278,32.128 C37.318,32.128 38.277,32.575 39.050,33.419 C42.028,36.677 42.217,46.595 41.860,51.942 ZM31.475,44.577 C31.475,44.387 31.381,44.211 31.224,44.109 C31.135,44.051 31.034,44.022 30.932,44.022 C30.854,44.022 30.775,44.039 30.702,44.074 C27.760,45.477 24.405,46.218 21.000,46.218 C17.595,46.218 14.240,45.477 11.298,44.074 C11.225,44.039 11.146,44.022 11.068,44.022 C10.966,44.022 10.865,44.051 10.776,44.109 C10.619,44.211 10.524,44.387 10.524,44.577 L10.524,50.173 C10.524,50.480 10.768,50.728 11.068,50.728 L30.932,50.728 C31.232,50.728 31.475,50.480 31.475,50.173 L31.475,44.577 ZM32.588,15.799 L30.784,15.799 C30.498,15.799 30.262,16.025 30.242,16.315 C29.726,23.733 25.700,29.327 20.876,29.327 C16.051,29.327 12.025,23.733 11.509,16.315 C11.489,16.025 11.252,15.799 10.967,15.799 L9.412,15.799 C8.799,15.799 8.300,15.290 8.300,14.664 C8.300,14.037 8.799,13.528 9.412,13.528 L9.440,13.528 C9.733,13.528 9.973,13.290 9.983,12.991 C10.206,6.234 11.814,2.227 19.379,1.742 C19.665,1.725 19.888,1.482 19.888,1.189 L19.888,1.136 C19.888,0.510 20.387,-0.000 21.000,-0.000 C21.613,-0.000 22.112,0.510 22.112,1.136 L22.112,1.191 C22.112,1.484 22.334,1.726 22.620,1.745 C30.130,2.250 31.782,6.423 32.014,12.993 C32.025,13.291 32.265,13.528 32.557,13.528 L32.588,13.528 C33.200,13.528 33.700,14.037 33.700,14.664 C33.700,15.290 33.200,15.799 32.588,15.799 ZM20.876,27.055 C24.427,27.055 27.492,22.475 28.005,16.402 C28.018,16.247 27.966,16.094 27.863,15.979 C27.760,15.865 27.615,15.799 27.463,15.799 L14.288,15.799 C14.136,15.799 13.991,15.865 13.888,15.979 C13.785,16.094 13.733,16.247 13.747,16.402 C14.259,22.475 17.324,27.055 20.876,27.055 ZM22.691,4.021 C22.679,4.020 22.667,4.019 22.655,4.019 C22.518,4.019 22.385,4.073 22.284,4.169 C22.175,4.274 22.112,4.421 22.112,4.575 L22.112,7.900 C22.112,8.526 21.613,9.036 21.000,9.036 C20.387,9.036 19.888,8.526 19.888,7.900 L19.888,4.571 C19.888,4.418 19.826,4.272 19.716,4.167 C19.616,4.070 19.482,4.016 19.345,4.016 C19.333,4.016 19.322,4.017 19.311,4.017 C14.144,4.345 12.418,6.516 12.206,12.954 C12.200,13.104 12.256,13.250 12.359,13.358 C12.461,13.466 12.602,13.528 12.749,13.528 L29.249,13.528 C29.396,13.528 29.538,13.466 29.641,13.358 C29.743,13.250 29.797,13.103 29.792,12.952 C29.566,6.538 27.841,4.368 22.691,4.021 Z" class="cls-1"/>
</svg>

