<svg xmlns="http://www.w3.org/2000/svg" xmlns:xlink="http://www.w3.org/1999/xlink" preserveAspectRatio="xMidYMid" width="54" height="44" viewBox="0 0 54 44">
  <defs>
    <style>
      .cls-1 {
        fill: #0e0b11;
        fill-rule: evenodd;
      }
    </style>
  </defs>
  <path d="M50.296,21.932 L51.171,27.067 L46.108,24.386 L47.078,22.528 L48.403,23.229 L48.057,21.199 L49.520,19.761 L47.497,19.465 L46.593,17.618 L45.688,19.465 L43.665,19.761 L44.736,20.814 L43.282,22.317 L39.185,18.296 L44.304,17.546 L46.593,12.874 L48.881,17.546 L54.000,18.296 L50.296,21.932 ZM26.999,21.925 C20.999,21.925 16.117,17.007 16.117,10.962 C16.117,4.918 20.999,-0.000 26.999,-0.000 C33.000,-0.000 37.882,4.918 37.882,10.962 C37.882,17.007 33.000,21.925 26.999,21.925 ZM26.999,2.100 C22.148,2.100 18.201,6.076 18.201,10.962 C18.201,15.850 22.148,19.826 26.999,19.826 C31.851,19.826 35.798,15.850 35.798,10.962 C35.798,6.076 31.851,2.100 26.999,2.100 ZM21.913,10.733 L23.387,9.248 L26.308,12.191 L31.283,7.179 L32.757,8.664 L26.308,15.160 L21.913,10.733 ZM9.262,20.814 L10.334,19.761 L8.311,19.465 L7.406,17.618 L6.501,19.465 L4.478,19.761 L5.942,21.199 L5.596,23.229 L6.921,22.528 L7.891,24.386 L2.828,27.067 L3.702,21.932 L-0.001,18.296 L5.117,17.546 L7.406,12.874 L9.695,17.546 L14.813,18.296 L10.717,22.317 L9.262,20.814 ZM11.554,26.142 L14.577,19.972 L17.600,26.142 L22.269,26.826 L21.970,28.904 L16.216,28.061 L14.577,24.716 L12.938,28.061 L9.273,28.598 L11.925,31.202 L11.299,34.878 L14.577,33.143 L17.898,34.901 L16.929,36.760 L14.577,35.514 L8.531,38.716 L9.686,31.935 L4.795,27.132 L11.554,26.142 ZM16.441,31.495 L23.736,30.427 L26.999,23.767 L30.262,30.427 L37.558,31.495 L32.279,36.679 L33.525,44.000 L26.999,40.543 L20.473,44.000 L21.720,36.679 L16.441,31.495 ZM26.999,38.171 L30.757,40.161 L30.040,35.946 L33.080,32.961 L28.878,32.346 L26.999,28.510 L25.120,32.346 L20.919,32.961 L23.959,35.946 L23.241,40.161 L26.999,38.171 ZM42.699,34.878 L42.074,31.202 L44.725,28.598 L41.061,28.061 L39.422,24.716 L37.783,28.061 L32.029,28.904 L31.729,26.826 L36.399,26.142 L39.422,19.972 L42.445,26.142 L49.203,27.132 L44.313,31.935 L45.467,38.716 L39.422,35.514 L37.071,36.760 L36.101,34.901 L39.422,33.143 L42.699,34.878 Z" class="cls-1"/>
</svg>

