<svg xmlns="http://www.w3.org/2000/svg" xmlns:xlink="http://www.w3.org/1999/xlink" preserveAspectRatio="xMidYMid" width="43" height="43" viewBox="0 0 43 43">
  <defs>
    <style>
      .cls-1 {
        fill: #fff;
        fill-rule: evenodd;
      }
    </style>
  </defs>
  <path d="M40.776,23.724 L23.724,23.724 L23.724,40.776 C23.724,42.004 22.728,43.000 21.500,43.000 C20.272,43.000 19.276,42.004 19.276,40.776 L19.276,23.724 L2.224,23.724 C0.996,23.724 -0.000,22.728 -0.000,21.500 C-0.000,20.272 0.996,19.276 2.224,19.276 L19.276,19.276 L19.276,2.224 C19.276,0.996 20.272,-0.000 21.500,-0.000 C22.728,-0.000 23.724,0.996 23.724,2.224 L23.724,19.276 L40.776,19.276 C42.004,19.276 43.000,20.272 43.000,21.500 C43.000,22.728 42.004,23.724 40.776,23.724 Z" class="cls-1"/>
</svg>
