<svg xmlns="http://www.w3.org/2000/svg" xmlns:xlink="http://www.w3.org/1999/xlink" preserveAspectRatio="xMidYMid" width="13" height="3" viewBox="0 0 13 3">
  <defs>
    <style>
      .cls-1 {
        fill: #fff;
        fill-rule: evenodd;
      }
    </style>
  </defs>
  <path d="M11.555,3.000 C10.758,3.000 10.111,2.328 10.111,1.500 C10.111,0.672 10.758,-0.000 11.555,-0.000 C12.353,-0.000 13.000,0.672 13.000,1.500 C13.000,2.328 12.353,3.000 11.555,3.000 ZM6.500,3.000 C5.702,3.000 5.056,2.328 5.056,1.500 C5.056,0.672 5.702,-0.000 6.500,-0.000 C7.298,-0.000 7.944,0.672 7.944,1.500 C7.944,2.328 7.298,3.000 6.500,3.000 ZM1.444,3.000 C0.647,3.000 -0.000,2.328 -0.000,1.500 C-0.000,0.672 0.647,-0.000 1.444,-0.000 C2.242,-0.000 2.889,0.672 2.889,1.500 C2.889,2.328 2.242,3.000 1.444,3.000 Z" class="cls-1"/>
</svg>
