<svg xmlns="http://www.w3.org/2000/svg" xmlns:xlink="http://www.w3.org/1999/xlink" preserveAspectRatio="xMidYMid" width="25.031" height="21.031" viewBox="0 0 25.031 21.031">
  <defs>
    <style>
      .cls-1 {
        fill: #9bcd06;
        fill-rule: evenodd;
      }
    </style>
  </defs>
  <path d="M24.969,14.185 C25.444,17.408 23.350,20.427 20.290,20.928 C17.230,21.429 14.364,19.222 13.889,15.999 C12.514,6.684 20.390,0.484 20.390,0.484 L23.329,0.002 C23.329,0.002 20.931,3.321 20.563,9.314 C22.787,9.798 24.600,11.682 24.969,14.185 ZM6.595,20.928 C3.536,21.429 0.670,19.222 0.194,15.999 C-1.180,6.684 6.695,0.484 6.695,0.484 L9.634,0.002 C9.634,0.002 7.237,3.321 6.868,9.314 C9.092,9.798 10.905,11.682 11.274,14.185 C11.750,17.408 9.655,20.427 6.595,20.928 Z" class="cls-1"/>
</svg>
