<svg xmlns="http://www.w3.org/2000/svg" xmlns:xlink="http://www.w3.org/1999/xlink" preserveAspectRatio="xMidYMid" width="49" height="52.031" viewBox="0 0 49 52.031">
  <defs>
    <style>
      .cls-1 {
        fill: #0e0b11;
        fill-rule: evenodd;
      }
    </style>
  </defs>
  <path d="M48.961,43.630 L48.906,43.712 L48.899,43.814 C48.847,44.098 48.695,44.325 48.475,44.474 C48.323,44.579 48.146,44.643 47.951,44.664 L40.948,45.326 L37.031,51.522 C36.830,51.846 36.482,52.015 36.135,52.021 L35.658,51.922 L35.351,51.846 L35.305,51.834 C35.150,51.747 35.011,51.625 34.908,51.467 L31.078,45.598 L26.789,39.402 L26.411,39.496 C25.646,39.583 24.844,39.309 24.121,38.698 L23.449,37.984 L23.309,37.837 L13.793,51.562 C13.573,51.876 13.217,52.030 12.873,52.021 C12.522,52.015 12.175,51.846 11.971,51.522 L8.020,45.268 L0.945,44.410 C0.750,44.383 0.579,44.316 0.431,44.208 C-0.003,43.896 -0.152,43.282 0.186,42.801 L9.015,30.120 L9.033,30.029 L8.946,29.236 C8.723,28.517 8.113,28.036 7.338,27.954 L6.390,27.761 C4.298,27.042 4.047,24.891 5.600,23.106 C5.969,22.684 6.164,22.239 6.207,21.816 L5.928,20.675 L5.293,20.072 L4.084,18.948 C3.790,18.490 3.651,17.959 3.737,17.378 C3.855,16.555 4.410,15.897 5.144,15.421 L5.804,15.059 L5.925,15.001 C6.455,14.768 6.830,14.452 7.059,14.090 L7.326,12.948 L7.016,12.140 L6.446,10.689 C6.269,9.285 7.264,8.177 8.903,7.900 L9.870,7.832 C11.410,7.871 12.281,6.870 12.138,5.745 L12.138,4.802 C12.389,2.679 14.512,1.963 16.659,3.024 C18.023,3.704 19.259,3.168 19.643,2.098 L20.043,1.281 C21.019,-0.246 22.789,-0.415 24.251,0.813 L24.930,1.525 C25.280,1.981 25.689,2.259 26.108,2.397 L27.316,2.394 L28.060,1.923 L28.813,1.339 C30.133,0.548 31.487,0.895 32.330,1.996 L33.055,3.640 L33.213,4.163 L33.647,4.843 C34.174,5.400 34.939,5.576 35.664,5.325 C37.731,4.606 39.197,5.553 39.510,7.164 L39.423,8.948 L39.334,9.488 L39.417,10.277 C39.643,10.999 40.254,11.480 41.025,11.556 L41.143,11.573 L41.983,11.752 C44.074,12.470 44.320,14.622 42.773,16.405 C42.401,16.831 42.206,17.278 42.162,17.697 L42.436,18.841 L43.074,19.436 L44.282,20.564 C44.570,21.023 44.716,21.553 44.629,22.134 C44.515,22.960 43.960,23.617 43.219,24.093 L42.559,24.450 L42.436,24.508 C41.911,24.741 41.540,25.062 41.310,25.424 L41.044,26.566 L41.351,27.373 L41.837,28.403 C42.129,29.440 41.809,30.365 41.010,30.967 L40.917,31.033 L45.153,37.538 L48.822,42.801 C48.986,43.040 49.032,43.315 48.986,43.569 L48.961,43.630 ZM2.953,42.555 L8.807,43.270 C9.132,43.303 9.427,43.487 9.597,43.756 L12.937,49.043 L21.215,37.090 L21.044,37.122 L20.313,37.587 L19.554,38.178 C18.230,38.964 16.876,38.617 16.039,37.516 L15.315,35.871 L15.159,35.349 L14.723,34.674 C14.196,34.114 13.431,33.939 12.705,34.187 C11.363,34.652 10.236,34.423 9.523,33.705 L9.325,33.410 L2.953,42.555 ZM41.431,22.678 L41.546,22.621 C42.345,22.269 42.485,21.923 42.497,21.840 C42.497,21.828 42.504,21.784 42.475,21.718 L42.265,21.445 L41.896,21.173 L40.579,19.924 C39.640,18.467 39.845,16.525 41.118,15.063 C41.775,14.309 41.924,13.740 40.790,13.623 L40.669,13.599 L39.860,13.435 C38.308,12.911 37.338,11.583 37.192,10.038 L37.325,8.463 L37.440,7.761 L37.254,7.226 C37.102,7.127 36.836,7.127 36.386,7.284 C34.490,7.938 32.665,7.202 31.651,5.739 L30.933,4.067 L30.787,3.553 L30.536,3.138 C30.462,3.053 30.393,3.019 30.365,3.003 L29.910,3.132 L29.563,3.418 L28.218,4.300 C26.761,4.878 25.095,4.542 23.858,3.477 L23.211,2.802 C22.684,2.122 22.302,2.070 22.218,2.076 C22.190,2.079 21.915,2.113 21.680,2.773 L21.271,3.597 C20.118,5.406 17.723,5.898 15.671,4.878 C14.716,4.402 14.159,4.447 14.295,5.512 L14.298,6.409 C14.097,8.226 12.647,9.544 10.775,9.851 L9.827,9.912 C9.321,9.900 8.971,9.949 8.776,10.075 L8.655,10.689 L8.857,11.065 L9.451,12.528 C9.715,14.023 9.002,15.515 7.645,16.435 L6.942,16.834 L6.817,16.893 C6.021,17.244 5.885,17.590 5.872,17.673 C5.869,17.684 5.869,17.728 5.894,17.798 L6.102,18.070 L6.467,18.339 L7.784,19.588 C8.726,21.042 8.525,22.990 7.248,24.450 C6.591,25.203 6.446,25.772 7.589,25.889 L8.509,26.081 C10.577,26.773 11.611,28.911 11.041,31.066 C10.759,32.134 10.936,32.590 11.977,32.228 C13.874,31.574 15.699,32.309 16.718,33.770 L17.428,35.442 L17.580,35.962 L17.828,36.378 C17.905,36.461 17.970,36.497 18.001,36.506 L18.460,36.382 L18.810,36.100 L20.155,35.212 C21.608,34.634 23.272,34.970 24.515,36.036 L25.159,36.708 C25.686,37.394 26.064,37.443 26.148,37.437 C26.179,37.434 26.449,37.401 26.684,36.736 C27.558,34.284 30.350,33.469 32.696,34.631 C33.473,35.020 33.836,34.903 33.910,34.861 C33.935,34.847 34.164,34.704 34.071,33.997 L34.071,33.098 C34.270,31.290 35.717,29.968 37.595,29.661 L38.540,29.597 C39.417,29.618 39.699,29.364 39.746,29.297 C39.751,29.285 39.774,29.246 39.779,29.171 L39.718,28.835 L39.507,28.441 L38.915,26.984 C38.655,25.494 39.364,23.997 40.719,23.077 L41.431,22.678 ZM43.257,38.548 L38.469,31.681 L37.474,31.831 C36.585,32.149 36.117,32.920 36.222,33.761 L36.241,34.593 C36.191,35.169 36.009,35.693 35.643,36.115 L35.035,36.636 L34.980,36.666 L34.230,36.935 C33.408,37.095 32.519,36.883 31.707,36.482 C30.350,35.805 29.107,36.345 28.729,37.416 L28.546,37.793 L32.897,44.471 L35.925,48.838 L39.339,43.778 L39.634,43.478 L39.715,43.437 L39.789,43.416 L40.195,43.270 L45.881,42.578 L43.257,38.548 ZM31.732,31.607 C29.203,33.137 26.371,33.820 23.595,33.732 C18.968,33.585 14.490,31.296 11.847,27.229 C7.611,20.727 9.644,12.134 16.384,8.049 C23.127,3.964 32.039,5.929 36.278,12.428 C40.514,18.931 38.478,27.519 31.732,31.607 ZM34.447,13.532 C30.849,8.009 23.269,6.338 17.533,9.812 C11.803,13.284 10.071,20.595 13.675,26.118 C15.925,29.576 19.727,31.522 23.663,31.650 C26.027,31.726 28.432,31.148 30.585,29.845 C36.321,26.368 38.051,19.065 34.447,13.532 ZM28.810,21.462 L29.376,24.629 C29.458,25.090 29.327,25.557 29.015,25.912 C28.700,26.271 28.240,26.477 27.755,26.477 C27.491,26.477 27.226,26.414 26.989,26.294 L24.024,24.798 L21.060,26.294 C20.384,26.635 19.520,26.466 19.033,25.912 C18.721,25.557 18.590,25.090 18.672,24.630 L19.238,21.462 L16.840,19.218 C16.388,18.796 16.228,18.177 16.423,17.601 C16.618,17.025 17.127,16.613 17.751,16.525 L21.067,16.063 L22.549,13.181 C22.828,12.638 23.393,12.301 24.024,12.301 C24.655,12.301 25.221,12.638 25.500,13.181 L26.982,16.063 L30.297,16.525 C30.921,16.613 31.430,17.024 31.625,17.600 C31.820,18.176 31.660,18.796 31.209,19.218 L28.810,21.462 ZM26.661,17.737 C26.125,17.663 25.661,17.340 25.422,16.874 L24.024,14.157 L22.627,16.874 C22.387,17.340 21.923,17.663 21.387,17.737 L18.263,18.173 L20.524,20.288 C20.912,20.651 21.089,21.174 20.997,21.687 L20.463,24.673 L23.258,23.263 C23.494,23.144 23.759,23.081 24.024,23.081 C24.290,23.081 24.554,23.144 24.790,23.262 L27.585,24.673 L27.051,21.686 C26.960,21.173 27.137,20.651 27.525,20.288 L29.786,18.173 L26.661,17.737 Z" class="cls-1"/>
</svg>

